<?xml version="1.0" encoding="utf-8"?>
<!-- Generator: Adobe Illustrator 21.0.2, SVG Export Plug-In . SVG Version: 6.00 Build 0)  -->
<!DOCTYPE svg PUBLIC "-//W3C//DTD SVG 1.1//EN" "http://www.w3.org/Graphics/SVG/1.1/DTD/svg11.dtd" [
        <!ENTITY ns_extend "http://ns.adobe.com/Extensibility/1.0/">
        <!ENTITY ns_ai "http://ns.adobe.com/AdobeIllustrator/10.0/">
        <!ENTITY ns_graphs "http://ns.adobe.com/Graphs/1.0/">
        <!ENTITY ns_vars "http://ns.adobe.com/Variables/1.0/">
        <!ENTITY ns_imrep "http://ns.adobe.com/ImageReplacement/1.0/">
        <!ENTITY ns_sfw "http://ns.adobe.com/SaveForWeb/1.0/">
        <!ENTITY ns_custom "http://ns.adobe.com/GenericCustomNamespace/1.0/">
        <!ENTITY ns_adobe_xpath "http://ns.adobe.com/XPath/1.0/">
        ]>
<svg version="1.1"
     xmlns="http://www.w3.org/2000/svg"
     width="512" height="512"
     viewBox="-25 0 230.2 230"
     xmlns:xlink="http://www.w3.org/1999/xlink" x="0px" y="0px"
     style="enable-background:new 0 0 927.2 238.3;" xml:space="preserve">
<style type="text/css">
	.st0{fill:#8427CD;}
	.st1{fill:#7710C8;}
	.st2{fill:#A25CD9;}
	.st3{fill:#B780E2;}
	.st4{fill:#984AD5;}
</style>
    <switch>
        <g>
		<g>
			<path class="st0" d="M18.4,160.1H9.3c-5.1,0-9.3-4.2-9.3-9.3v-45.4c0-5.1,4.2-9.3,9.3-9.3h9.1c5.1,0,9.3,4.2,9.3,9.3v45.4
				C27.6,155.9,23.5,160.1,18.4,160.1z"/>
            <path class="st1" d="M56.4,144.3h-9.3c-5.1,0-9.3-4.2-9.3-9.3V53.9c0-5.1,4.2-9.3,9.3-9.3h9.3c5.1,0,9.3,4.2,9.3,9.3v81.1
				C65.7,140.2,61.5,144.3,56.4,144.3z"/>
            <path class="st2" d="M127.3,195.7h-9.6c-5.1,0-9.3-4.2-9.3-9.3v-60.7c0-5.1,4.2-9.3,9.3-9.3h9.6c5.1,0,9.3,4.2,9.3,9.3v60.7
				C136.5,191.5,132.4,195.7,127.3,195.7z"/>
            <path class="st3" d="M165.6,155.5H156c-5.1,0-9.3-4.2-9.3-9.3v-40.6c0-5.1,4.2-9.3,9.3-9.3h9.6c5.1,0,9.3,4.2,9.3,9.3v40.6
				C174.9,151.4,170.7,155.5,165.6,155.5z"/>
            <path class="st4" d="M91.8,214.1h-9c-5,0-9.1-4.1-9.1-9.1V67.2c0-5,4.1-9.1,9.1-9.1h9c5,0,9.1,4.1,9.1,9.1v137.8
				C100.9,210,96.8,214.1,91.8,214.1z"/>
		</g>
	</g>
</switch>
</svg>
