<svg xmlns="http://www.w3.org/2000/svg" width="97" height="32" viewBox="0 0 97 32">
    <defs>
        <linearGradient id="prefix__a" x1="4.476%" x2="95.896%" y1="24.429%" y2="82.518%">
            <stop offset="0%" stop-color="#770FC8"/>
            <stop offset="100%" stop-color="#A25CD9"/>
        </linearGradient>
    </defs>
    <g fill="none" fill-rule="evenodd">
        <path fill="#191927" d="M35.149 21.493v-2.616h-6.76l6.607-8.292V7.97h-9.652v2.615h6.262l-6.588 8.292v2.616h10.13zm4.088-11.256c.575 0 .993-.133 1.255-.398.262-.264.392-.603.392-1.017v-.426c0-.413-.13-.752-.392-1.017-.262-.265-.68-.397-1.255-.397-.574 0-.992.132-1.254.397s-.393.604-.393 1.017v.426c0 .414.131.753.393 1.017.262.265.68.398 1.254.398zm1.418 11.256V11.322H37.82v10.17h2.835zm7.114 4.107c1.021 0 1.88-.074 2.576-.223.696-.148 1.254-.368 1.675-.659.422-.29.725-.642.91-1.055.185-.414.278-.892.278-1.434 0-.943-.278-1.673-.833-2.19-.556-.516-1.446-.774-2.672-.774h-2.91c-.435 0-.744-.068-.93-.204-.185-.135-.277-.326-.277-.571 0-.349.147-.62.44-.814.536.142 1.13.213 1.781.213 1.456 0 2.538-.307 3.246-.92.709-.614 1.063-1.43 1.063-2.45 0-.66-.14-1.237-.421-1.735-.281-.497-.715-.888-1.302-1.172v-.116h2.221V9.365h-1.59c-.485 0-.858.12-1.12.358-.261.24-.392.63-.392 1.172v.388c-.473-.13-1.04-.194-1.705-.194-1.455 0-2.537.313-3.246.94-.708.626-1.063 1.456-1.063 2.49 0 .658.147 1.236.44 1.733.295.497.748.888 1.36 1.172v.078c-.23.051-.459.122-.689.213-.23.09-.43.21-.603.358-.172.149-.313.323-.421.523-.109.2-.163.436-.163.708 0 .439.121.823.364 1.152.242.33.606.54 1.091.63v.213c-.587.078-1.047.278-1.379.6-.332.324-.497.77-.497 1.337 0 .375.086.708.258.998.172.29.447.536.824.736.376.2.868.356 1.474.465.607.11 1.344.165 2.212.165zm.038-9.59c-.561 0-.98-.12-1.254-.358-.275-.24-.412-.585-.412-1.037v-.232c0-.452.137-.798.412-1.037.274-.239.693-.358 1.254-.358.562 0 .98.12 1.255.358.274.239.411.585.411 1.037v.232c0 .452-.137.798-.411 1.037-.275.239-.693.358-1.255.358zm.632 7.691H47.29c-.766 0-1.308-.087-1.628-.261-.319-.175-.478-.449-.478-.824 0-.155.028-.313.086-.474.057-.162.15-.307.278-.436h3.447c.574 0 .976.077 1.206.232.23.155.345.381.345.678 0 .375-.16.65-.479.824-.32.174-.862.261-1.628.261zm9.47-2.208v-6.587c0-.246.051-.462.153-.65.103-.187.24-.345.412-.474.172-.13.367-.223.584-.28.217-.059.44-.088.67-.088.524 0 .888.158 1.092.475.204.316.306.804.306 1.462v6.142h2.835v-6.374c0-1.292-.265-2.286-.795-2.984-.53-.697-1.312-1.046-2.346-1.046-.792 0-1.41.194-1.858.581-.446.388-.76.846-.938 1.376h-.115v-1.724h-2.834v10.17h2.834zm11.634.232c.766 0 1.41-.17 1.934-.513.524-.342.862-.843 1.015-1.502h.115c.09.543.303.976.642 1.298.338.323.763.485 1.273.485h1.57v-2.228h-.938v-4.456c0-1.214-.357-2.138-1.072-2.77-.715-.634-1.788-.95-3.218-.95-1.06 0-1.899.171-2.518.513-.619.343-1.133.817-1.541 1.424l1.685 1.512c.217-.31.491-.588.823-.833.332-.246.78-.369 1.34-.369.6 0 1.029.146 1.284.436.255.29.383.682.383 1.172v.64h-1.59c-1.327 0-2.377.261-3.15.784-.772.523-1.158 1.321-1.158 2.393 0 .891.268 1.608.804 2.15.536.543 1.309.814 2.317.814zm1.053-1.995c-.42 0-.746-.087-.976-.262-.23-.174-.345-.449-.345-.823v-.29c0-.763.555-1.144 1.666-1.144h1.379v1.201c0 .465-.17.801-.508 1.008-.338.206-.743.31-1.216.31zm12.094 1.763v-2.228h-1.264V7.156h-2.834v11.547c0 .904.226 1.595.68 2.073.453.478 1.165.717 2.135.717h1.283zm4.031 3.875c.868 0 1.535-.188 2.001-.562.466-.375.827-.956 1.082-1.744l3.869-11.74H91.03l-1.475 4.746-.746 2.945h-.115l-.728-2.945-1.475-4.746h-2.815L87.2 22.016l-.345 1.124H84.96v2.228h1.762z"/>
        <path fill="url(#prefix__a)" d="M9.018 8.727c.804 0 1.455.651 1.455 1.455v11.636c0 .804-.651 1.455-1.455 1.455-.803 0-1.454-.651-1.454-1.455V10.182c0-.804.65-1.455 1.454-1.455zm3.782 6.11c.803 0 1.455.65 1.455 1.454v4.073c0 .803-.652 1.454-1.455 1.454s-1.455-.651-1.455-1.454V16.29c0-.803.652-1.455 1.455-1.455zm3.782-1.746c.803 0 1.454.651 1.454 1.454v4.073c0 .804-.65 1.455-1.454 1.455-.804 0-1.455-.651-1.455-1.455v-4.073c0-.803.651-1.454 1.455-1.454zm-15.127 0c.803 0 1.454.651 1.454 1.454v4.073c0 .804-.651 1.455-1.454 1.455C.65 20.073 0 19.422 0 18.618v-4.073c0-.803.651-1.454 1.455-1.454zm3.781-3.782c.804 0 1.455.651 1.455 1.455v4.072c0 .804-.651 1.455-1.455 1.455-.803 0-1.454-.651-1.454-1.455v-4.072c0-.804.651-1.455 1.454-1.455z"/>
    </g>
</svg>
