<?xml version="1.0" standalone="no"?>
<!DOCTYPE svg PUBLIC "-//W3C//DTD SVG 20010904//EN"
 "http://www.w3.org/TR/2001/REC-SVG-20010904/DTD/svg10.dtd">
<svg version="1.0" xmlns="http://www.w3.org/2000/svg"
 width="218.000000pt" height="218.000000pt" viewBox="0 0 218.000000 218.000000"
 preserveAspectRatio="xMidYMid meet">
<metadata>
Created by potrace 1.11, written by Peter Selinger 2001-2013
</metadata>
<g transform="translate(0.000000,218.000000) scale(0.100000,-0.100000)"
fill="#000000" stroke="none">
<path d="M578 2121 c10 -6 9 -10 -7 -14 -12 -3 -21 -1 -21 4 0 5 -5 9 -11 9
-5 0 -8 -4 -5 -9 3 -5 -2 -15 -11 -22 -14 -12 -16 -12 -8 1 4 8 5 12 0 8 -4
-4 -9 -20 -11 -35 -1 -16 -5 -50 -8 -78 -3 -27 -6 -115 -6 -195 -1 -93 -6
-150 -13 -159 -9 -12 -9 -13 1 -7 8 5 12 0 12 -16 0 -13 -6 -30 -12 -37 -9
-10 -9 -12 -1 -7 8 4 11 -1 10 -14 -1 -11 -6 -20 -12 -20 -5 0 -3 -5 5 -10 13
-9 13 -11 0 -20 -10 -6 -11 -10 -2 -10 6 0 12 -5 12 -11 0 -5 -6 -7 -12 -3
-10 6 -10 5 -2 -7 15 -19 15 -71 0 -62 -8 5 -8 3 0 -8 8 -9 14 -86 17 -214 2
-110 8 -209 12 -219 7 -15 5 -18 -6 -12 -8 4 -5 0 6 -9 11 -9 18 -18 17 -21
-2 -3 0 -9 4 -12 4 -4 3 -1 -1 7 -6 11 -4 13 11 6 10 -4 29 -10 42 -12 12 -3
25 -9 28 -14 3 -5 28 -9 55 -9 31 0 48 4 44 10 -3 6 -2 10 4 10 5 0 12 -6 14
-12 4 -8 6 -7 6 3 1 9 10 19 22 22 15 4 19 2 15 -9 -4 -11 4 -9 25 7 21 14 29
28 26 40 -3 10 1 23 9 30 8 6 14 17 14 23 0 6 -5 4 -10 -4 -8 -13 -10 -12 -10
3 0 9 4 17 10 17 14 0 11 211 -3 229 -9 12 -9 13 1 7 17 -10 16 532 -1 553 -9
12 -9 13 1 7 6 -4 12 -2 12 3 0 6 -6 11 -12 11 -9 0 -8 4 2 10 13 8 13 13 2
31 -8 11 -9 19 -5 16 5 -3 9 10 8 29 0 19 -6 38 -12 42 -6 4 -10 28 -8 54 1
26 -1 51 -4 55 -12 16 -54 48 -47 36 11 -19 -5 -16 -19 4 -8 11 -18 14 -31 8
-27 -12 -113 -15 -120 -4 -3 5 -11 9 -17 9 -8 0 -8 -3 1 -9z m249 -343 c-3 -8
-6 -5 -6 6 -1 11 2 17 5 13 3 -3 4 -12 1 -19z m-24 -833 c-3 -9 -8 -14 -10
-11 -3 3 -2 9 2 15 9 16 15 13 8 -4z"/>
<path d="M820 2021 c0 -6 4 -13 10 -16 6 -3 7 1 4 9 -7 18 -14 21 -14 7z"/>
<path d="M1040 1960 c13 -8 13 -10 -2 -10 -9 0 -25 -3 -35 -6 -15 -5 -15 -4
-3 5 10 7 11 11 3 11 -7 0 -17 -9 -23 -20 -6 -11 -16 -19 -23 -17 -7 1 -11 -4
-9 -11 1 -7 -5 -15 -13 -18 -8 -4 -15 -10 -15 -16 0 -5 4 -7 9 -3 6 3 8 -28 6
-77 -2 -46 -4 -203 -5 -351 -1 -165 -5 -265 -11 -262 -5 4 -9 1 -9 -4 0 -6 4
-11 9 -11 5 0 9 -13 9 -30 -1 -17 -6 -30 -12 -30 -6 0 -4 -5 4 -10 13 -9 13
-11 0 -20 -10 -6 -11 -10 -2 -10 6 0 12 -7 12 -15 0 -8 -6 -15 -12 -15 -8 0
-9 -3 -3 -8 13 -9 19 -46 7 -38 -11 7 -10 -19 1 -30 12 -12 8 -26 -5 -18 -10
6 -10 4 0 -7 6 -7 12 -24 12 -37 0 -16 -4 -21 -12 -16 -10 6 -10 4 0 -7 16
-17 16 -43 0 -33 -10 6 -10 5 -1 -7 9 -11 12 -90 13 -279 1 -263 6 -402 15
-429 4 -9 0 -11 -10 -7 -8 3 -15 1 -15 -4 0 -6 7 -10 15 -10 8 0 15 -6 15 -12
0 -7 7 -22 15 -33 13 -17 28 -19 119 -20 57 0 102 3 99 7 -4 8 2 9 37 12 9 1
14 9 12 20 -3 14 1 17 13 12 13 -5 15 -2 10 15 -4 12 -3 19 1 16 5 -3 8 19 7
49 0 30 2 52 6 49 4 -2 8 9 8 25 0 18 -4 27 -11 23 -6 -4 -5 1 3 10 11 14 11
20 0 34 -9 10 -9 14 -2 10 9 -6 12 165 11 758 -1 421 -5 765 -10 765 -4 0 -8
9 -8 20 0 11 -4 20 -10 20 -5 0 -6 8 -3 17 5 12 2 15 -10 10 -10 -4 -16 -2
-14 6 1 7 -4 11 -10 10 -7 -2 -13 1 -13 6 0 5 -12 9 -27 9 -15 0 -29 5 -31 11
-2 6 -27 11 -60 11 -41 0 -53 -3 -42 -10z"/>
<path d="M100 1492 c0 -7 -4 -10 -10 -7 -5 3 -18 1 -27 -4 -10 -6 -14 -11 -9
-11 4 0 0 -8 -11 -17 -10 -10 -13 -14 -6 -9 8 5 13 4 13 -2 0 -5 -9 -16 -21
-23 -20 -14 -20 -22 -19 -284 1 -312 2 -345 13 -345 4 0 7 -9 7 -21 0 -11 4
-17 10 -14 6 4 7 -1 3 -11 -5 -13 -3 -16 10 -11 9 3 19 1 23 -5 5 -7 2 -8 -7
-4 -8 4 -5 0 5 -8 11 -9 25 -16 30 -16 6 0 4 5 -4 11 -11 7 -4 8 25 3 57 -10
88 -12 100 -5 11 6 25 9 68 14 29 4 50 24 41 39 -3 4 1 8 9 8 10 0 13 7 10 20
-3 11 -1 26 4 33 14 18 14 110 0 119 -9 6 -9 8 1 8 16 0 14 218 -2 239 -8 11
-8 13 1 8 8 -5 10 6 7 41 -2 26 -5 72 -7 102 -1 30 -8 61 -15 69 -10 11 -11
16 -2 21 20 12 -27 52 -51 45 -13 -4 -19 -2 -19 9 0 9 -5 16 -11 16 -5 0 -8
-4 -5 -8 3 -4 -11 -9 -30 -9 -19 -1 -34 3 -34 8 0 5 -5 9 -11 9 -5 0 -8 -4 -4
-10 8 -12 -58 -8 -67 5 -5 6 -8 5 -8 -3z"/>
<path d="M1935 1491 c5 -9 1 -12 -11 -11 -34 4 -45 0 -38 -12 5 -8 2 -9 -9 -5
-9 3 -19 2 -22 -3 -4 -6 -1 -10 6 -10 7 0 4 -6 -7 -14 -12 -9 -20 -28 -21 -53
-3 -73 -3 -438 0 -493 4 -64 31 -124 52 -116 8 3 17 1 20 -5 4 -5 10 -7 15 -4
5 3 11 2 13 -2 5 -9 109 -9 123 -1 5 3 18 4 28 2 10 -1 24 3 31 9 7 7 22 18
33 26 12 8 18 20 14 29 -3 8 -1 13 4 10 5 -4 9 111 9 287 0 177 -3 291 -9 288
-5 -4 -6 -1 -2 5 11 18 -35 60 -74 67 -87 15 -163 18 -155 6z"/>
<path d="M1432 1236 c-12 -7 -19 -15 -15 -20 4 -4 -1 -4 -12 0 -15 6 -17 4
-11 -11 4 -11 4 -16 0 -12 -4 4 -13 -1 -19 -10 -16 -21 -19 -186 -16 -705 1
-143 1 -143 30 -176 28 -32 57 -40 146 -43 47 -1 110 11 107 21 -2 7 3 10 12
7 22 -9 49 28 51 70 1 21 3 38 5 38 10 0 7 132 -3 144 -9 12 -9 13 1 7 7 -4
12 -2 12 6 0 8 -6 20 -12 27 -9 10 -10 12 -1 7 9 -5 12 45 12 214 0 167 -3
219 -12 214 -8 -5 -8 -3 1 7 6 7 12 27 12 44 0 23 -3 26 -10 15 -6 -9 -10 -10
-10 -3 0 6 5 15 10 18 7 4 7 12 0 25 -7 13 -6 20 3 23 9 4 9 6 0 6 -7 1 -13
10 -13 21 0 12 -7 20 -17 20 -14 0 -15 2 -5 9 10 6 10 10 -2 20 -8 7 -21 9
-27 5 -8 -5 -9 -3 -4 6 6 10 4 12 -8 7 -10 -4 -17 -1 -17 5 0 9 -3 9 -11 1 -7
-7 -21 -8 -40 -3 -18 5 -27 5 -24 -1 4 -5 -4 -5 -19 1 -15 5 -26 6 -26 1 0
-10 -19 -9 -35 1 -6 3 -20 1 -33 -6z"/>
<path d="M1271 194 c0 -11 3 -14 6 -6 3 7 2 16 -1 19 -3 4 -6 -2 -5 -13z"/>
</g>
</svg>
